<svg xmlns="http://www.w3.org/2000/svg" viewBox="0 0 24 24" version="1.1">
  <path d="M1.275 0.0151C0.8161 0.078 0.3919 0.3888 0.1679 0.8262C0.0027 1.149 0.0148 0.2654 0.0148 12C0.0148 21.3421 0.0196 22.7196 0.0532 22.8618C0.1728 23.3691 0.6023 23.8132 1.1087 23.9531C1.2596 23.9947 1.4279 23.999 2.926 23.999C3.8341 23.999 4.609 23.9901 4.648 23.9791C4.6871 23.9682 4.762 23.9216 4.8144 23.8755C5.0603 23.6597 5.0352 23.2714 4.7632 23.0829L4.6595 23.011L3.0063 22.998L1.353 22.985L1.2553 22.9242C1.2015 22.8908 1.1255 22.8089 1.0863 22.7422L1.015 22.621V12V1.379L1.0863 1.2578C1.1255 1.1911 1.2015 1.1092 1.2553 1.0758L1.353 1.015L7.541 1.0073C10.9444 1.0031 13.7904 1.0068 13.8655 1.0157L14.002 1.0317L14.0024 2.8304C14.0029 4.8058 14.0054 4.8417 14.159 5.1545C14.3251 5.4928 14.6345 5.7767 14.9862 5.9137L15.159 5.981L17.07 5.994L18.981 6.007L18.9975 6.267C19.0065 6.41 19.0153 7.8981 19.017 9.5738C19.019 11.6561 19.0288 12.6438 19.0477 12.6938C19.0786 12.7756 19.1879 12.8997 19.267 12.9428C19.5065 13.0732 19.8473 12.9624 19.9583 12.718C20.0049 12.6153 20.0069 12.479 20.0074 9.359C20.0078 7.2536 19.9983 6.0069 19.9804 5.823C19.9082 5.0809 19.6587 4.2218 19.3227 3.5584C18.8249 2.5752 18.005 1.6612 17.07 1.0469C16.4897 0.6656 15.6514 0.3109 14.964 0.1556C14.253 -0.005 14.6938 0.0046 7.762 -0.001C4.2799 -0.0039 1.3608 0.0034 1.275 0.0151M15.0166 2.906C15.0171 4.5072 15.0199 4.609 15.0657 4.71C15.1258 4.8423 15.2534 4.9426 15.4065 4.9779C15.4798 4.9948 16.1278 5.005 17.1545 5.0054C18.7805 5.006 18.786 5.0058 18.786 4.9529C18.786 4.7868 18.3768 3.8805 18.1349 3.511C17.5746 2.6549 16.7511 1.9326 15.874 1.5279C15.6666 1.4322 15.2066 1.256 15.0875 1.2266L15.016 1.209L15.0166 2.906M7.3361 15.021C7.205 15.0571 7.0445 15.2186 7.0091 15.3501C6.9899 15.4213 6.9835 16.7153 6.9882 19.557L6.995 23.661L7.067 23.767C7.2727 24.07 7.7053 24.07 7.911 23.767L7.983 23.661L7.9902 21.837L7.9974 20.0129L8.9262 20.0017C9.822 19.9909 9.8638 19.9882 10.102 19.9241C10.4186 19.839 10.6052 19.7553 10.8682 19.5803C11.4061 19.2224 11.8029 18.6421 11.9359 18.019C11.9948 17.7431 11.9948 17.2549 11.9359 16.979C11.7678 16.1915 11.1877 15.4975 10.44 15.1895C10.0154 15.0147 9.9621 15.0091 8.633 15.0008C7.8435 14.9959 7.4027 15.0027 7.3361 15.021M13.3438 15.0157C13.2242 15.0528 13.0897 15.1716 13.0377 15.286C12.9909 15.389 12.9891 15.5443 12.9891 19.501C12.9891 23.4577 12.9909 23.613 13.0377 23.716C13.0945 23.8409 13.2195 23.9436 13.3619 23.9823C13.496 24.0187 14.0409 23.9794 14.3953 23.9078C15.8904 23.6055 17.174 22.5061 17.7037 21.074C18.0193 20.2208 18.0702 19.2682 17.8474 18.383C17.4488 16.7993 16.1731 15.5318 14.5788 15.1354C14.173 15.0346 13.4949 14.9688 13.3438 15.0157M20.71 15.0155C20.4903 15.0442 20.2754 15.1143 20.047 15.2317C19.8857 15.3147 19.7836 15.3945 19.592 15.5869C19.3163 15.8639 19.1842 16.068 19.0783 16.381L19.0079 16.589L18.9944 18.045C18.9871 18.8458 18.9869 20.4447 18.994 21.5981L19.007 23.6952L19.0878 23.7951C19.2059 23.9412 19.3123 23.9947 19.4848 23.9945C19.6991 23.9943 19.8854 23.8743 19.9543 23.6918C19.9729 23.6426 19.982 23.0256 19.982 21.8133V20.008L21.0025 20.0078C21.6344 20.0078 22.0604 19.9973 22.1212 19.9804C22.2358 19.9486 22.3858 19.825 22.4422 19.7158C22.4639 19.6738 22.4817 19.5762 22.4817 19.499C22.4817 19.3241 22.4055 19.1789 22.2612 19.0789L22.1575 19.007L21.0698 18.9994L19.982 18.9918L19.9825 18.0114C19.9828 17.4722 19.9938 16.9565 20.007 16.8654C20.0553 16.5309 20.2685 16.2452 20.58 16.0973L20.749 16.017L22.192 16.004C23.774 15.9898 23.7036 15.9971 23.8608 15.8308C24.1053 15.5725 23.9737 15.1132 23.6277 15.0171C23.5176 14.9866 20.9428 14.9851 20.71 15.0155M7.996 17.499V18.994L8.8345 18.9936C9.7794 18.9932 9.8808 18.9801 10.1903 18.8183C10.6634 18.571 10.986 18.0361 10.986 17.499C10.986 16.939 10.6502 16.4038 10.1472 16.1624C10.0294 16.1058 9.8636 16.0471 9.7787 16.0318C9.6908 16.0159 9.2744 16.004 8.8102 16.004H7.996V17.499M14.002 19.501V22.946L14.0605 22.9459C14.1602 22.9458 14.5902 22.8212 14.8282 22.7235C15.3875 22.4939 15.9295 22.0715 16.2942 21.581C16.9629 20.6816 17.16 19.4688 16.8086 18.4164C16.7364 18.2004 16.5866 17.8686 16.4882 17.707C16.0776 17.0325 15.4154 16.4819 14.7104 16.2288C14.4919 16.1503 14.1348 16.056 14.0562 16.056H14.002V19.501" stroke="none" fill="currentColor" fill-rule="evenodd" stroke-width="0.026"></path>
</svg>