<svg xmlns="http://www.w3.org/2000/svg" viewBox="0 0 24 24" version="1.1">
  <path d="M0.608256 6.576984C0.383088 6.621552 0.15852000000000002 6.7979519999999996 0.064176 7.004424C-0.014616 7.176792000000001 -0.00876 7.457976 0.077208 7.632000000000001C0.132384 7.743696 0.986616 8.607456 5.633208000000001 13.249896C11.615928 19.227263999999998 11.182248000000001 18.813216 11.592 18.938807999999998C11.84088 19.01508 12.15912 19.01508 12.408 18.938807999999998C12.817752 18.813216 12.384072000000002 19.227263999999998 18.366792 13.249896C23.162088 8.458872 23.865336 7.747272 23.91888 7.632000000000001C23.9526 7.559400000000001 23.99004 7.481256 24.002088 7.458336C24.032424 7.400615999999999 24.030624 7.1450640000000005 24 7.164000000000001C23.986800000000002 7.17216 23.97576 7.159295999999999 23.975472 7.135416000000001C23.973744 6.992832 23.7768 6.742272 23.592576 6.648288C23.384520000000002 6.54216 23.114088 6.539280000000001 22.908 6.6410160000000005C22.8684 6.660576 20.397912 9.11364 17.418 12.092256L12 17.507952000000003 6.582 12.092256C3.6020879999999997 9.11364 1.1316 6.660648 1.092 6.641208C1.019496 6.605592000000001 0.7903680000000001 6.5497440000000005 0.736824 6.55464C0.72096 6.556080000000001 0.66312 6.566136 0.608256 6.576984M0.00768 7.32C0.00768 7.4058 0.012048 7.440912000000001 0.017352 7.398000000000001C0.02268 7.355088 0.02268 7.284912 0.017352 7.242C0.012048 7.199088 0.00768 7.2342 0.00768 7.32" stroke="none" fill="currentColor" fill-rule="evenodd" stroke-width="0.024"></path>
</svg>